
<svg width="150" height="50" viewBox="0 0 150 50" fill="none" xmlns="http://www.w3.org/2000/svg">
  <path d="M20.5 14C18.5 10 15 10 12 12C9 14 8.5 18 11 21C13.5 24 18.5 25 23 23C27.5 21 29.5 15 25.5 11C21.5 7 17.5 8 15 10" stroke="#9b87f5" stroke-width="2.5" stroke-linecap="round"/>
  <path d="M32 19C30 15 26.5 15 23.5 17C20.5 19 20 23 22.5 26C25 29 30 30 34.5 28C39 26 41 20 37 16C33 12 29 13 26.5 15" stroke="#9b87f5" stroke-width="2.5" stroke-linecap="round"/>
  <rect x="37" y="17" width="5" height="9" rx="2.5" fill="#9b87f5"/>
  <rect x="50" y="17" width="5" height="9" rx="2.5" fill="#9b87f5"/>
  <path d="M44 42C51.1797 42 57 35.9558 57 28.5C57 21.0442 51.1797 15 44 15C36.8203 15 31 21.0442 31 28.5C31 35.9558 36.8203 42 44 42Z" fill="#F2FCE2"/>
  <path d="M44 39C49.5228 39 54 34.5228 54 29C54 23.4772 49.5228 19 44 19C38.4772 19 34 23.4772 34 29C34 34.5228 38.4772 39 44 39Z" fill="#F2FCE2"/>
  <path d="M40 27C41.6569 27 43 25.6569 43 24C43 22.3431 41.6569 21 40 21C38.3431 21 37 22.3431 37 24C37 25.6569 38.3431 27 40 27Z" fill="#9b87f5"/>
  <path d="M48 27C49.6569 27 51 25.6569 51 24C51 22.3431 49.6569 21 48 21C46.3431 21 45 22.3431 45 24C45 25.6569 46.3431 27 48 27Z" fill="#9b87f5"/>
  <path d="M44 36C46.7614 36 49 33.7614 49 31H39C39 33.7614 41.2386 36 44 36Z" fill="#9b87f5"/>
  <text x="60" y="32" font-family="Arial" font-weight="bold" font-size="16" fill="#1A1F2C">PetFinder</text>
</svg>
